<?xml version="1.0" encoding="UTF-8"?>
<svg version="1.1" xmlns="http://www.w3.org/2000/svg" width="500" height="500">
<path d="M0 0 C1.09699219 0.25523438 2.19398438 0.51046875 3.32421875 0.7734375 C35.61584572 9.60602806 60.82288061 31.63487381 77.3125 60.1875 C78.56801815 62.44552664 79.78584597 64.71902748 81 67 C81.46019531 67.83015625 81.92039062 68.6603125 82.39453125 69.515625 C85.63811935 75.89983015 87.41902818 82.6715169 89.25 89.5625 C89.50861816 90.53243896 89.76723633 91.50237793 90.03369141 92.50170898 C100.65732615 134.26272815 84.2657178 176.35427902 65 213 C63.55073752 215.38167954 62.03094034 217.65609979 60.4140625 219.92578125 C58.84361074 222.22939972 57.55320021 224.59806832 56.25 227.0625 C47.26962229 243.83054901 36.22242143 259.57476411 25.20214844 275.04833984 C22.03635866 279.49848245 18.97742888 283.99375795 16.0859375 288.62890625 C15.72757813 289.08136719 15.36921875 289.53382813 15 290 C14.34 290 13.68 290 13 290 C12.80664062 290.65613281 12.61328125 291.31226563 12.4140625 291.98828125 C10.39558475 296.28730431 7.43536313 299.58309002 4.375 303.1875 C3.10629763 304.70403133 1.83806626 306.22095682 0.5703125 307.73828125 C-0.04295898 308.46869629 -0.65623047 309.19911133 -1.28808594 309.95166016 C-3.47461105 312.56788174 -5.61906697 315.21329952 -7.75 317.875 C-8.34296875 318.61492187 -8.9359375 319.35484375 -9.546875 320.1171875 C-10.76485587 321.69532401 -11.89421212 323.34131817 -13 325 C-13.66 325 -14.32 325 -15 325 C-15.20625 325.5775 -15.4125 326.155 -15.625 326.75 C-17.79514598 330.30114796 -21.04632609 332.21853043 -24.875 333.75 C-33.17388448 334.72633935 -37.77209738 333.14715724 -45 329 C-45 328.34 -45 327.68 -45 327 C-45.66 327 -46.32 327 -47 327 C-48.43812673 325.43059199 -49.8003005 323.79125965 -51.125 322.125 C-51.92035156 321.12855469 -52.71570313 320.13210938 -53.53515625 319.10546875 C-54.34855469 318.08066406 -55.16195312 317.05585938 -56 316 C-56.78246094 315.04738281 -57.56492187 314.09476562 -58.37109375 313.11328125 C-59.45583984 311.78876953 -59.45583984 311.78876953 -60.5625 310.4375 C-61.22378906 309.63183594 -61.88507813 308.82617188 -62.56640625 307.99609375 C-64 306 -64 306 -64 304 C-64.66 304 -65.32 304 -66 304 C-66.66 302.35 -67.32 300.7 -68 299 C-68.66 299 -69.32 299 -70 299 C-71.48828125 297.2265625 -71.48828125 297.2265625 -73.3125 294.625 C-74.02277344 293.62210937 -74.73304688 292.61921875 -75.46484375 291.5859375 C-75.86429199 291.01842773 -76.26374023 290.45091797 -76.67529297 289.86621094 C-78.12217507 287.82788311 -79.59193902 285.80752119 -81.06640625 283.7890625 C-91.55578205 269.41612578 -101.29599107 254.62331388 -110.921875 239.66308594 C-111.93499679 238.10027216 -112.96688631 236.54967054 -114 235 C-114 234.01 -114 233.02 -114 232 C-114.66 232 -115.32 232 -116 232 C-140.89493976 186.64836897 -163.67479061 141.04409902 -151.0859375 88.16015625 C-149.03246374 81.13994719 -146.26054607 74.53848173 -143 68 C-142.42378906 66.824375 -141.84757813 65.64875 -141.25390625 64.4375 C-135.16392449 52.33109833 -124.82014123 33.37526101 -112 28 C-112 27.34 -112 26.68 -112 26 C-110.35 25.34 -108.7 24.68 -107 24 C-107 23.34 -107 22.68 -107 22 C-99.72813438 15.66919934 -90.61355017 11.23332118 -82 7 C-81.30729004 6.65912354 -80.61458008 6.31824707 -79.90087891 5.96704102 C-74.23978455 3.30914158 -68.58823631 1.69055058 -62.5 0.3125 C-61.17162109 -0.00557617 -61.17162109 -0.00557617 -59.81640625 -0.33007812 C-40.40380533 -4.8482826 -19.37811048 -4.54135476 0 0 Z M-70 77 C-70 77.66 -70 78.32 -70 79 C-70.66 79 -71.32 79 -72 79 C-72 79.66 -72 80.32 -72 81 C-72.66 81 -73.32 81 -74 81 C-76.60218606 84.1396653 -78.77209846 87.5883754 -81 91 C-81.48339844 91.71800781 -81.96679688 92.43601562 -82.46484375 93.17578125 C-89.61127115 104.70998475 -90.8656902 119.71683837 -87.81860352 132.7409668 C-83.6610489 148.73140721 -74.87917002 161.22942835 -60.83984375 170.14453125 C-58.88478088 171.21081016 -58.88478088 171.21081016 -56 171 C-56 171.66 -56 172.32 -56 173 C-39.20616918 178.92885653 -22.34269501 180.57406835 -5.6875 172.75 C9.28296529 164.54197075 19.5522227 152.6671529 25.23828125 136.640625 C29.25414971 122.71894768 27.90354347 107.21586125 21.3125 94.375 C13.68666825 81.3530023 3.89051571 72.02311437 -10 66 C-10.80179687 65.649375 -11.60359375 65.29875 -12.4296875 64.9375 C-31.45583628 57.99787127 -55.10814144 63.30863676 -70 77 Z " fill="#4B4BF7" transform="translate(280,69)"/>
<path d="M0 0 C0.66 0.33 1.32 0.66 2 1 C2.33 1.99 2.66 2.98 3 4 C3.66 4 4.32 4 5 4 C5 6.31 5 8.62 5 11 C5.639375 11.185625 6.27875 11.37125 6.9375 11.5625 C9 13 9 13 9.75 16.625 C9.87375 18.295625 9.87375 18.295625 10 20 C11.32 20 12.64 20 14 20 C14.12375 21.60875 14.12375 21.60875 14.25 23.25 C15.08441629 27.42208146 15.91240009 28.27564714 19 31 C19.515625 31.886875 20.03125 32.77375 20.5625 33.6875 C21.84772096 36.30410442 21.84772096 36.30410442 25 37 C24.67 37.66 24.34 38.32 24 39 C24.88214887 41.88214887 24.88214887 41.88214887 26 44 C26.99 44 27.98 44 29 44 C29.33 44.99 29.66 45.98 30 47 C30.99 47.66 31.98 48.32 33 49 C33 49.99 33 50.98 33 52 C33.33 52.66 33.66 53.32 34 54 C34.144375 54.845625 34.28875 55.69125 34.4375 56.5625 C34.623125 57.366875 34.80875 58.17125 35 59 C35.99 59.495 35.99 59.495 37 60 C37 60.99 37 61.98 37 63 C38.65 63 40.3 63 42 63 C42 64.65 42 66.3 42 68 C43.32 68.33 44.64 68.66 46 69 C46.5534764 71.07553648 47 72.84365964 47 75 C47.4125 75.391875 47.825 75.78375 48.25 76.1875 C50.78419134 78.81219817 52.25025362 81.80218765 54 85 C54.99 85 55.98 85 57 85 C56.505 86.485 56.505 86.485 56 88 C56.66 88 57.32 88 58 88 C58.45375 88.78375 58.9075 89.5675 59.375 90.375 C61.07651113 93.1235949 62.04519084 93.87921032 65 95 C65 96.32 65 97.64 65 99 C66.485 99.99 66.485 99.99 68 101 C69.38671875 103.1640625 69.38671875 103.1640625 70.6875 105.625 C71.12449219 106.44226563 71.56148438 107.25953125 72.01171875 108.1015625 C72.33785156 108.72804688 72.66398437 109.35453125 73 110 C73.99 110 74.98 110 76 110 C76.66 110.33 77.32 110.66 78 111 C77.505 112.485 77.505 112.485 77 114 C78.98 114.495 78.98 114.495 81 115 C81 116.98 81 118.96 81 121 C82.485 121.495 82.485 121.495 84 122 C84 122.66 84 123.32 84 124 C84.598125 124.28875 85.19625 124.5775 85.8125 124.875 C88 126 88 126 91 128 C91 128.99 91 129.98 91 131 C92.98 131 94.96 131 97 131 C97 131.66 97 132.32 97 133 C98.44096586 132.57405412 99.87768712 132.13373367 101.3125 131.6875 C102.11300781 131.44386719 102.91351563 131.20023438 103.73828125 130.94921875 C106.13019621 129.94535807 107.25709958 128.87696968 109 127 C109.86625 126.566875 110.7325 126.13375 111.625 125.6875 C114.32756194 124.17404018 114.32756194 124.17404018 114.625 120.9375 C114.810625 119.4834375 114.810625 119.4834375 115 118 C118 116 118 116 121 116 C121.37125 114.824375 121.37125 114.824375 121.75 113.625 C123.20924503 110.56058543 124.05014956 110.38274239 127 109 C128.64333972 106.53499043 129.16133895 104.34311997 129.875 101.4375 C131.0725589 97.77829227 131.66903994 96.76344944 135 95 C137.25 94.3125 137.25 94.3125 139 94 C138.79375 93.2575 138.5875 92.515 138.375 91.75 C138 89 138 89 138.625 86.75 C140 85 140 85 142.625 84.25 C143.40875 84.1675 144.1925 84.085 145 84 C145.66 82.02 146.32 80.04 147 78 C148.32 78 149.64 78 151 78 C151.33 77.34 151.66 76.68 152 76 C152.99 75.67 153.98 75.34 155 75 C153.30919257 78.62819095 151.19604178 81.90749523 149 85.25 C148.29875 86.32765625 147.5975 87.4053125 146.875 88.515625 C145.946875 89.74539063 145.946875 89.74539063 145 91 C144.34 91 143.68 91 143 91 C142.80664062 91.65613281 142.61328125 92.31226563 142.4140625 92.98828125 C140.39558475 97.28730431 137.43536313 100.58309002 134.375 104.1875 C133.10629763 105.70403133 131.83806626 107.22095682 130.5703125 108.73828125 C129.95704102 109.46869629 129.34376953 110.19911133 128.71191406 110.95166016 C126.52538895 113.56788174 124.38093303 116.21329952 122.25 118.875 C121.65703125 119.61492187 121.0640625 120.35484375 120.453125 121.1171875 C119.23514413 122.69532401 118.10578788 124.34131817 117 126 C116.34 126 115.68 126 115 126 C114.79375 126.5775 114.5875 127.155 114.375 127.75 C112.20485402 131.30114796 108.95367391 133.21853043 105.125 134.75 C96.82611552 135.72633935 92.22790262 134.14715724 85 130 C85 129.34 85 128.68 85 128 C84.34 128 83.68 128 83 128 C81.56187327 126.43059199 80.1996995 124.79125965 78.875 123.125 C78.07964844 122.12855469 77.28429687 121.13210938 76.46484375 120.10546875 C75.65144531 119.08066406 74.83804688 118.05585938 74 117 C73.21753906 116.04738281 72.43507813 115.09476562 71.62890625 114.11328125 C70.90574219 113.23027344 70.18257813 112.34726562 69.4375 111.4375 C68.77621094 110.63183594 68.11492187 109.82617188 67.43359375 108.99609375 C66 107 66 107 66 105 C65.34 105 64.68 105 64 105 C63.34 103.35 62.68 101.7 62 100 C61.34 100 60.68 100 60 100 C58.51171875 98.2265625 58.51171875 98.2265625 56.6875 95.625 C55.97722656 94.62210937 55.26695312 93.61921875 54.53515625 92.5859375 C53.93598389 91.73467285 53.93598389 91.73467285 53.32470703 90.86621094 C51.87782493 88.82788311 50.40806098 86.80752119 48.93359375 84.7890625 C38.44421795 70.41612578 28.70400893 55.62331388 19.078125 40.66308594 C18.06500321 39.10027216 17.03311369 37.54967054 16 36 C16 35.01 16 34.02 16 33 C15.34 33 14.68 33 14 33 C12.6365558 30.52441308 11.28223525 28.04441444 9.9375 25.55859375 C8.50440628 22.91118179 7.03747552 20.28444097 5.5625 17.66015625 C4.72866314 16.14871518 3.89532855 14.6369969 3.0625 13.125 C2.6487915 12.39998291 2.23508301 11.67496582 1.80883789 10.92797852 C-1.05507289 5.6731131 -1.05507289 5.6731131 -0.75390625 1.9921875 C-0.50511719 1.33476562 -0.25632813 0.67734375 0 0 Z " fill="#52C5F2" transform="translate(150,268)"/>
<path d="M0 0 C1.09699219 0.25523438 2.19398438 0.51046875 3.32421875 0.7734375 C35.61900532 9.6068923 60.81826197 31.63572813 77.3125 60.1875 C78.57083343 62.44447154 79.78796187 64.7172376 81 67 C81.47179687 67.8765625 81.94359375 68.753125 82.4296875 69.65625 C85.35015669 75.5334675 87.1624445 81.62486478 88.875 87.9375 C89.10276123 88.76725342 89.33052246 89.59700684 89.56518555 90.4519043 C89.86936401 91.63393433 89.86936401 91.63393433 90.1796875 92.83984375 C90.36257324 93.54488037 90.54545898 94.24991699 90.73388672 94.97631836 C91.03298496 97.25083703 90.6880966 98.82813797 90 101 C89.71125 99.9275 89.4225 98.855 89.125 97.75 C88.25696817 94.85656056 87.36184224 92.63856934 86 90 C85.30899447 88.00827818 84.64097297 86.00838196 84 84 C83.67 83.01 83.34 82.02 83 81 C82.34 80.67 81.68 80.34 81 80 C80.67 79.01 80.34 78.02 80 77 C79.649375 76.34 79.29875 75.68 78.9375 75 C78 73 78 73 78 70 C77.0409375 69.5359375 77.0409375 69.5359375 76.0625 69.0625 C74 68 74 68 73 67 C73.04125 65.865625 73.0825 64.73125 73.125 63.5625 C73.08375 62.386875 73.0425 61.21125 73 60 C72.01 59.34 71.02 58.68 70 58 C69.01 58.495 69.01 58.495 68 59 C67.34 58.34 66.68 57.68 66 57 C65.01 57.495 65.01 57.495 64 58 C64.52268466 55.23723823 65.10869587 52.6739124 66 50 C64.0745356 48.8509288 64.0745356 48.8509288 62 49 C61.01 45.04 61.01 45.04 60 41 C58.68 41 57.36 41 56 41 C54 38 54 38 54 35 C52.68 35 51.36 35 50 35 C49.38125 33.576875 49.38125 33.576875 48.75 32.125 C46.89818686 28.81819082 46.39450075 28.26081456 43 27 C39.97207178 26.74934369 37.04558972 26.91042383 34 27 C33.01 22.545 33.01 22.545 32 18 C29.52733235 18.34444881 29.52733235 18.34444881 27 19 C26.67 19.66 26.34 20.32 26 21 C25.34 21 24.68 21 24 21 C23.875 14.25 23.875 14.25 25 12 C23.700625 11.87625 22.40125 11.7525 21.0625 11.625 C18.84765625 11.4140625 18.84765625 11.4140625 17 11 C16.505 10.01 16.505 10.01 16 9 C13.97536745 8.34786708 13.97536745 8.34786708 12 8 C12 7.01 12 6.02 12 5 C11.14277344 4.93941406 10.28554688 4.87882812 9.40234375 4.81640625 C-3.87741558 3.8432559 -3.87741558 3.8432559 -8 3 C-8.495 2.01 -8.495 2.01 -9 1 C-9.68707031 1 -10.37414062 1 -11.08203125 1 C-22 1 -22 1 -25.46875 0.96484375 C-26.81249889 0.95556738 -28.15624895 0.94645834 -29.5 0.9375 C-30.17675781 0.92912109 -30.85351562 0.92074219 -31.55078125 0.91210938 C-34.65160802 0.8968193 -37.03415048 1.01138349 -40 2 C-40.86625 1.814375 -41.7325 1.62875 -42.625 1.4375 C-46.47139297 0.9388935 -49.16621003 1.58430692 -52.87890625 2.5234375 C-55.29040417 3.06524734 -57.53683326 3.07697396 -60 3 C-60.33 3.33 -60.66 3.66 -61 4 C-62.03125 4.144375 -63.0625 4.28875 -64.125 4.4375 C-68.01168478 4.90187207 -68.01168478 4.90187207 -71.6875 6.125 C-74.78945692 6.94438485 -76.0914153 7.16343388 -79 6 C-73.78145924 3.04023062 -68.51137176 1.71041008 -62.6875 0.375 C-61.78837891 0.1584375 -60.88925781 -0.058125 -59.96289062 -0.28125 C-40.50025985 -4.84082511 -19.43754649 -4.55528388 0 0 Z " fill="#B436F0" transform="translate(280,69)"/>
<path d="M0 0 C1.7325 -0.5259375 1.7325 -0.5259375 3.5 -1.0625 C7 -2 7 -2 10.4375 -0.625 C11.7059375 0.179375 11.7059375 0.179375 13 1 C12.67 1.99 12.34 2.98 12 4 C14.81509993 6.2773501 14.81509993 6.2773501 18 6 C18.99 9.96 18.99 9.96 20 14 C22.97 13.505 22.97 13.505 26 13 C27.61949011 15.57213134 28.04408751 16.67669159 27.625 19.75 C27.41875 20.4925 27.2125 21.235 27 22 C27.763125 21.79375 28.52625 21.5875 29.3125 21.375 C32 21 32 21 35 23 C35.1171875 24.84765625 35.1171875 24.84765625 34.875 27.0625 C34.64534349 32.73960892 37.001821 36.35036502 40 41 C40.33 41.66 40.66 42.32 41 43 C40.505 43.99 40.505 43.99 40 45 C40.99 45 41.98 45 43 45 C42.6596875 45.53882813 42.319375 46.07765625 41.96875 46.6328125 C40.72764343 49.66551646 41.07239332 51.64328029 41.5 54.875 C41.98811433 59.46439682 42.01893039 62.724618 40 67 C40.66 67.33 41.32 67.66 42 68 C41.01 70.31 40.02 72.62 39 75 C38.34 75 37.68 75 37 75 C36.855625 75.7425 36.71125 76.485 36.5625 77.25 C36.2840625 78.61125 36.2840625 78.61125 36 80 C35.87625 80.7425 35.7525 81.485 35.625 82.25 C35.41875 82.8275 35.2125 83.405 35 84 C33.515 84.495 33.515 84.495 32 85 C32.29003906 84.07380859 32.29003906 84.07380859 32.5859375 83.12890625 C33.41683332 80.42643816 34.21263422 77.71545173 35 75 C35.21269531 74.30519531 35.42539062 73.61039062 35.64453125 72.89453125 C39.2484082 59.49018318 37.60870589 44.64145017 31.3125 32.375 C23.04789747 18.31103091 11.82257991 7.87794562 -4 3 C-20.47112847 -0.89243086 -34.52944237 1.56108256 -49.234375 9.671875 C-50.14703125 10.11015625 -51.0596875 10.5484375 -52 11 C-52.66 10.67 -53.32 10.34 -54 10 C-54.625 7.4375 -54.625 7.4375 -55 5 C-48.71428571 -0.57142857 -48.71428571 -0.57142857 -45 -1 C-44.67 -0.01 -44.34 0.98 -44 2 C-43.34 1.67 -42.68 1.34 -42 1 C-32.9954439 -0.38698337 -23.90218646 -1.18050423 -14.8125 -1.75 C-13.62926147 -1.83507812 -13.62926147 -1.83507812 -12.42211914 -1.921875 C-7.7420396 -2.17873005 -4.46594127 -1.58890736 0 0 Z M-53 5 C-53.33 5.66 -53.66 6.32 -54 7 C-53.34 7 -52.68 7 -52 7 C-52.33 6.34 -52.66 5.68 -53 5 Z " fill="#9333F0" transform="translate(269,131)"/>
<path d="M0 0 C0.66 0.33 1.32 0.66 2 1 C2.33 1.99 2.66 2.98 3 4 C3.66 4 4.32 4 5 4 C5 6.31 5 8.62 5 11 C5.639375 11.185625 6.27875 11.37125 6.9375 11.5625 C9 13 9 13 9.75 16.625 C9.87375 18.295625 9.87375 18.295625 10 20 C11.32 20 12.64 20 14 20 C14.12375 21.60875 14.12375 21.60875 14.25 23.25 C15.08441629 27.42208146 15.91240009 28.27564714 19 31 C19.515625 31.886875 20.03125 32.77375 20.5625 33.6875 C21.84772096 36.30410442 21.84772096 36.30410442 25 37 C24.67 37.66 24.34 38.32 24 39 C24.88214887 41.88214887 24.88214887 41.88214887 26 44 C26.99 44 27.98 44 29 44 C29.33 44.99 29.66 45.98 30 47 C30.99 47.66 31.98 48.32 33 49 C33 49.99 33 50.98 33 52 C33.33 52.66 33.66 53.32 34 54 C34.144375 54.845625 34.28875 55.69125 34.4375 56.5625 C34.623125 57.366875 34.80875 58.17125 35 59 C35.99 59.495 35.99 59.495 37 60 C37 60.99 37 61.98 37 63 C38.65 63 40.3 63 42 63 C42 64.65 42 66.3 42 68 C43.32 68.33 44.64 68.66 46 69 C46.5534764 71.07553648 47 72.84365964 47 75 C47.4125 75.391875 47.825 75.78375 48.25 76.1875 C50.78419134 78.81219817 52.25025362 81.80218765 54 85 C54.99 85 55.98 85 57 85 C56.505 86.485 56.505 86.485 56 88 C56.66 88 57.32 88 58 88 C58.45375 88.78375 58.9075 89.5675 59.375 90.375 C61.07651113 93.1235949 62.04519084 93.87921032 65 95 C65 96.32 65 97.64 65 99 C64.01 99 63.02 99 62 99 C61.67 97.68 61.34 96.36 61 95 C60.27296875 94.95359375 59.5459375 94.9071875 58.796875 94.859375 C55.00532006 93.69437208 53.46428539 91.35434128 51.25 88.25 C50.47140625 87.20328125 49.6928125 86.1565625 48.890625 85.078125 C41.99940223 75.43700274 35.36015417 65.62335326 28.79541016 55.75830078 C27.60623688 53.97181227 26.41454394 52.18702214 25.22265625 50.40234375 C24.45297668 49.24749467 23.68343994 48.09255039 22.9140625 46.9375 C22.2329541 45.91527344 21.5518457 44.89304687 20.85009766 43.83984375 C16 36.39509105 16 36.39509105 16 33 C15.34 33 14.68 33 14 33 C12.6365558 30.52441308 11.28223525 28.04441444 9.9375 25.55859375 C8.50440628 22.91118179 7.03747552 20.28444097 5.5625 17.66015625 C4.72866314 16.14871518 3.89532855 14.6369969 3.0625 13.125 C2.6487915 12.39998291 2.23508301 11.67496582 1.80883789 10.92797852 C-1.05507289 5.6731131 -1.05507289 5.6731131 -0.75390625 1.9921875 C-0.50511719 1.33476562 -0.25632813 0.67734375 0 0 Z " fill="#1F9CEC" transform="translate(150,268)"/>
<path d="M0 0 C-1.07146936 3.10726115 -1.85029993 3.92015996 -4.8125 5.5 C-5.864375 5.995 -6.91625 6.49 -8 7 C-8.845625 7.70125 -9.69125 8.4025 -10.5625 9.125 C-13.14142394 11.10878765 -14.80731196 11.63512137 -18 12 C-18 12.66 -18 13.32 -18 14 C-17.01 14 -16.02 14 -15 14 C-15.3125 15.9375 -15.3125 15.9375 -16 18 C-18.6739124 18.89130413 -21.23723823 19.47731534 -24 20 C-24.20625 21.093125 -24.4125 22.18625 -24.625 23.3125 C-26 27 -26 27 -28.8125 28.5625 C-29.864375 29.036875 -30.91625 29.51125 -32 30 C-33.35944411 31.4986562 -33.35944411 31.4986562 -34.5625 33.1875 C-37 36 -37 36 -39.8125 36.375 C-40.8953125 36.189375 -40.8953125 36.189375 -42 36 C-42.33 38.31 -42.66 40.62 -43 43 C-44.423125 43.1546875 -44.423125 43.1546875 -45.875 43.3125 C-49.29107501 43.68539295 -49.29107501 43.68539295 -51 47 C-50.67 47.66 -50.34 48.32 -50 49 C-50.78375 49.2475 -51.5675 49.495 -52.375 49.75 C-55.32317108 51.15389099 -55.9024777 52.00675737 -57 55 C-57.99 55 -58.98 55 -60 55 C-56.31524149 42.31628352 -44.71216124 29.76463331 -35 21 C-34.34 21 -33.68 21 -33 21 C-33 20.34 -33 19.68 -33 19 C-31.35 18.34 -29.7 17.68 -28 17 C-28 16.34 -28 15.68 -28 15 C-22.65001283 10.34236412 -16.27908834 6.91887045 -10.0625 3.5625 C-9.4120874 3.20849121 -8.7616748 2.85448242 -8.09155273 2.48974609 C-5.19591641 0.96230266 -3.32225835 0 0 0 Z " fill="#702AF5" transform="translate(201,76)"/>
<path d="M0 0 C1.09699219 0.25523438 2.19398438 0.51046875 3.32421875 0.7734375 C19.04689317 5.07399336 33.2325481 13.02347559 46 23 C44 24 44 24 42.0546875 23.44140625 C40.97574219 23.00634766 40.97574219 23.00634766 39.875 22.5625 C38.78832031 22.13130859 38.78832031 22.13130859 37.6796875 21.69140625 C37.12539063 21.46324219 36.57109375 21.23507813 36 21 C36 19.68 36 18.36 36 17 C34.51882199 17.28127421 33.04006751 17.57533732 31.5625 17.875 C30.73878906 18.03742188 29.91507812 18.19984375 29.06640625 18.3671875 C28.38449219 18.57601562 27.70257813 18.78484375 27 19 C26.67 19.66 26.34 20.32 26 21 C25.34 21 24.68 21 24 21 C23.875 14.25 23.875 14.25 25 12 C23.700625 11.87625 22.40125 11.7525 21.0625 11.625 C18.84765625 11.4140625 18.84765625 11.4140625 17 11 C16.505 10.01 16.505 10.01 16 9 C13.97536745 8.34786708 13.97536745 8.34786708 12 8 C12 7.01 12 6.02 12 5 C11.14277344 4.93941406 10.28554688 4.87882812 9.40234375 4.81640625 C-3.87741558 3.8432559 -3.87741558 3.8432559 -8 3 C-8.495 2.01 -8.495 2.01 -9 1 C-9.68707031 1 -10.37414062 1 -11.08203125 1 C-22 1 -22 1 -25.46875 0.96484375 C-26.81249889 0.95556738 -28.15624895 0.94645834 -29.5 0.9375 C-30.17675781 0.92912109 -30.85351562 0.92074219 -31.55078125 0.91210938 C-34.65160802 0.8968193 -37.03415048 1.01138349 -40 2 C-40.86625 1.814375 -41.7325 1.62875 -42.625 1.4375 C-46.47139297 0.9388935 -49.16621003 1.58430692 -52.87890625 2.5234375 C-55.29040417 3.06524734 -57.53683326 3.07697396 -60 3 C-60.33 3.33 -60.66 3.66 -61 4 C-62.03125 4.144375 -63.0625 4.28875 -64.125 4.4375 C-68.01168478 4.90187207 -68.01168478 4.90187207 -71.6875 6.125 C-74.78945692 6.94438485 -76.0914153 7.16343388 -79 6 C-73.78145924 3.04023062 -68.51137176 1.71041008 -62.6875 0.375 C-61.78837891 0.1584375 -60.88925781 -0.058125 -59.96289062 -0.28125 C-40.50025985 -4.84082511 -19.43754649 -4.55528388 0 0 Z " fill="#A615F0" transform="translate(280,69)"/>
<path d="M0 0 C2.45252033 2.37340677 4.79201583 4.75822344 7.01953125 7.34765625 C12.44232936 13.64418015 17.954193 19.31806433 26 22 C26 22.66 26 23.32 26 24 C27.299375 24.185625 27.299375 24.185625 28.625 24.375 C32 25 32 25 34.9375 26 C48.27464902 30.35498744 64.12167511 28.58617726 76.625 22.5 C79.63161743 20.8992071 82.31252463 19.09160979 85 17 C85.66 17.33 86.32 17.66 87 18 C83.93956839 23.06883985 81.76034862 25.78985686 76.05859375 27.58984375 C73.04900349 28.18947748 70.05991644 28 67 28 C66.34390747 28.73343628 66.34390747 28.73343628 65.67456055 29.48168945 C63.20600298 31.7199107 61.29971558 31.34097145 58.01953125 31.29296875 C56.85615234 31.28330078 55.69277344 31.27363281 54.49414062 31.26367188 C52.67172852 31.2259668 52.67172852 31.2259668 50.8125 31.1875 C49.58595703 31.17396484 48.35941406 31.16042969 47.09570312 31.14648438 C44.06336336 31.11108741 41.03190004 31.0617076 38 31 C38 30.34 38 29.68 38 29 C37.29875 29.04125 36.5975 29.0825 35.875 29.125 C32.59513338 28.9823971 30.08578605 28.09288256 27 27 C25.33911955 26.63893903 23.67381019 26.29537827 22 26 C21.505 23.525 21.505 23.525 21 21 C19.02 20.67 17.04 20.34 15 20 C15 19.34 15 18.68 15 18 C14.46375 17.938125 13.9275 17.87625 13.375 17.8125 C9.88843038 16.61972618 7.75059607 14.43802834 5 12 C4.67 12.66 4.34 13.32 4 14 C3.34 13.67 2.68 13.34 2 13 C2.04125 12.05125 2.0825 11.1025 2.125 10.125 C2.34973818 6.89755144 2.34973818 6.89755144 0 5 C-0.125 2.375 -0.125 2.375 0 0 Z " fill="#7585E9" transform="translate(198,218)"/>
<path d="M0 0 C1.33333333 0.66666667 2.66666667 1.33333333 4 2 C4.66 1.67 5.32 1.34 6 1 C4.20502323 17.51378627 -4.06288269 32.4235124 -11.29321289 47.11816406 C-12.23643413 49.0381664 -13.17501864 50.96038343 -14.11328125 52.8828125 C-14.66798096 54.01090332 -15.22268066 55.13899414 -15.79418945 56.30126953 C-17.13597953 58.81169265 -17.13597953 58.81169265 -17 61 C-18.485 61.495 -18.485 61.495 -20 62 C-19.91291331 60.54054712 -19.80473093 59.08234132 -19.6875 57.625 C-19.62949219 56.81289063 -19.57148438 56.00078125 -19.51171875 55.1640625 C-19 53 -19 53 -16 51 C-15.74969023 48.41619823 -15.74969023 48.41619823 -16 46 C-14.35 45.34 -12.7 44.68 -11 44 C-11 42.02 -11 40.04 -11 38 C-10.34 38 -9.68 38 -9 38 C-9.061875 37.113125 -9.12375 36.22625 -9.1875 35.3125 C-8.97896309 31.62834788 -8.0126182 30.01892731 -6 27 C-6 26.34 -6 25.68 -6 25 C-5.34 25 -4.68 25 -4 25 C-4.66 24.01 -5.32 23.02 -6 22 C-6 21.01 -6 20.02 -6 19 C-4.68 18.67 -3.36 18.34 -2 18 C-2 12.39 -2 6.78 -2 1 C-1.34 0.67 -0.68 0.34 0 0 Z " fill="#844BED" transform="translate(362,222)"/>
<path d="M0 0 C0 4.11382042 -2.08823219 6.45025048 -4.375 9.6875 C-4.7875 10.29400391 -5.2 10.90050781 -5.625 11.52539062 C-6.69370065 13.05776947 -7.84161259 14.53424265 -9 16 C-9.66 16 -10.32 16 -11 16 C-11.26570801 16.74185547 -11.53141602 17.48371094 -11.80517578 18.24804688 C-12.98220912 20.95902354 -14.22409604 22.78192271 -16.1171875 25.03125 C-16.72433594 25.75957031 -17.33148438 26.48789062 -17.95703125 27.23828125 C-18.58996094 27.98464844 -19.22289062 28.73101562 -19.875 29.5 C-21.12260465 30.98940844 -22.37000574 32.47898743 -23.6171875 33.96875 C-24.20540283 34.66661621 -24.79361816 35.36448242 -25.3996582 36.08349609 C-26.71895257 37.66342909 -28.00653678 39.26978486 -29.28515625 40.8828125 C-31.30203295 43.37289717 -33.33322401 45.22214934 -36 47 C-36.99 46.67 -37.98 46.34 -39 46 C-39 45.01 -39 44.02 -39 43 C-36 41 -36 41 -33 41 C-32.62875 39.824375 -32.62875 39.824375 -32.25 38.625 C-30.79075497 35.56058543 -29.94985044 35.38274239 -27 34 C-25.35666028 31.53499043 -24.83866105 29.34311997 -24.125 26.4375 C-22.9274411 22.77829227 -22.33096006 21.76344944 -19 20 C-16.75 19.3125 -16.75 19.3125 -15 19 C-15.20625 18.2575 -15.4125 17.515 -15.625 16.75 C-16 14 -16 14 -15.375 11.75 C-14 10 -14 10 -11.375 9.25 C-10.199375 9.12625 -10.199375 9.12625 -9 9 C-8.34 7.02 -7.68 5.04 -7 3 C-5.68 3 -4.36 3 -3 3 C-2.67 2.34 -2.34 1.68 -2 1 C-1.34 0.67 -0.68 0.34 0 0 Z " fill="#459BF0" transform="translate(304,343)"/>
<path d="M0 0 C0.66 0.33 1.32 0.66 2 1 C2.33 1.99 2.66 2.98 3 4 C3.66 4 4.32 4 5 4 C5 6.31 5 8.62 5 11 C5.639375 11.185625 6.27875 11.37125 6.9375 11.5625 C9 13 9 13 9.75 16.625 C9.87375 18.295625 9.87375 18.295625 10 20 C11.32 20 12.64 20 14 20 C14.12375 21.60875 14.12375 21.60875 14.25 23.25 C15.08441629 27.42208146 15.91240009 28.27564714 19 31 C19.515625 31.886875 20.03125 32.77375 20.5625 33.6875 C21.84772096 36.30410442 21.84772096 36.30410442 25 37 C24.67 37.66 24.34 38.32 24 39 C24.33 39.99 24.66 40.98 25 42 C25 42.66 25 43.32 25 44 C21.36603447 42.99056513 20.06608233 42.08394242 17.6875 39.0625 C16 36 16 36 16 33 C15.34 33 14.68 33 14 33 C12.6365558 30.52441308 11.28223525 28.04441444 9.9375 25.55859375 C8.50440628 22.91118179 7.03747552 20.28444097 5.5625 17.66015625 C4.72866314 16.14871518 3.89532855 14.6369969 3.0625 13.125 C2.6487915 12.39998291 2.23508301 11.67496582 1.80883789 10.92797852 C-1.05507289 5.6731131 -1.05507289 5.6731131 -0.75390625 1.9921875 C-0.50511719 1.33476562 -0.25632813 0.67734375 0 0 Z " fill="#389CEF" transform="translate(150,268)"/>
<path d="M0 0 C0 0.33 0 0.66 0 1 C-4.91912893 1.64513166 -9.50057182 2.01519691 -14.46875 1.96484375 C-15.81249889 1.95556738 -17.15624895 1.94645834 -18.5 1.9375 C-19.17675781 1.92912109 -19.85351562 1.92074219 -20.55078125 1.91210938 C-23.65160802 1.8968193 -26.03415048 2.01138349 -29 3 C-29.86625 2.814375 -30.7325 2.62875 -31.625 2.4375 C-35.47139297 1.9388935 -38.16621003 2.58430692 -41.87890625 3.5234375 C-44.29040417 4.06524734 -46.53683326 4.07697396 -49 4 C-49.33 4.33 -49.66 4.66 -50 5 C-51.03125 5.144375 -52.0625 5.28875 -53.125 5.4375 C-57.01168478 5.90187207 -57.01168478 5.90187207 -60.6875 7.125 C-63.78945692 7.94438485 -65.0914153 8.16343388 -68 7 C-47.69622558 -4.09549211 -22.24439879 -2.40557202 0 0 Z " fill="#A75EE9" transform="translate(269,68)"/>
<path d="M0 0 C3 1 3 1 4.90234375 4.2109375 C5.59312294 5.59283211 6.27079195 6.98133254 6.9375 8.375 C7.46863403 9.46603027 7.46863403 9.46603027 8.01049805 10.57910156 C19.95714714 35.49065824 19.95714714 35.49065824 17 44 C16.71125 42.9275 16.4225 41.855 16.125 40.75 C15.25696817 37.85656056 14.36184224 35.63856934 13 33 C12.30899447 31.00827818 11.64097297 29.00838196 11 27 C10.67 26.01 10.34 25.02 10 24 C9.34 23.67 8.68 23.34 8 23 C7.67 22.01 7.34 21.02 7 20 C6.649375 19.34 6.29875 18.68 5.9375 18 C5 16 5 16 5 13 C4.360625 12.690625 3.72125 12.38125 3.0625 12.0625 C1 11 1 11 0 10 C-0.07205511 8.31391034 -0.08386068 6.62499341 -0.0625 4.9375 C-0.05347656 4.01839844 -0.04445313 3.09929687 -0.03515625 2.15234375 C-0.02355469 1.44207031 -0.01195312 0.73179688 0 0 Z " fill="#BA56EC" transform="translate(353,126)"/>
<path d="M0 0 C2.45252033 2.37340677 4.79201583 4.75822344 7.01953125 7.34765625 C12.44232936 13.64418015 17.954193 19.31806433 26 22 C26 22.66 26 23.32 26 24 C27.299375 24.185625 27.299375 24.185625 28.625 24.375 C31.89513853 24.98058121 34.87256899 25.88306035 38 27 C35 29 35 29 31.86328125 28.5390625 C30.69152344 28.23742187 29.51976562 27.93578125 28.3125 27.625 C27.13300781 27.32851562 25.95351562 27.03203125 24.73828125 26.7265625 C23.38283203 26.36691406 23.38283203 26.36691406 22 26 C21.505 23.525 21.505 23.525 21 21 C19.02 20.67 17.04 20.34 15 20 C15 19.34 15 18.68 15 18 C14.46375 17.938125 13.9275 17.87625 13.375 17.8125 C9.88843038 16.61972618 7.75059607 14.43802834 5 12 C4.67 12.66 4.34 13.32 4 14 C3.34 13.67 2.68 13.34 2 13 C2.04125 12.05125 2.0825 11.1025 2.125 10.125 C2.34973818 6.89755144 2.34973818 6.89755144 0 5 C-0.125 2.375 -0.125 2.375 0 0 Z " fill="#6B86EF" transform="translate(198,218)"/>
<path d="M0 0 C0.99 0 1.98 0 3 0 C3 1.32 3 2.64 3 4 C3.515625 4.103125 4.03125 4.20625 4.5625 4.3125 C11.48631148 6.2653699 15.57597824 9.00878987 20.4375 14.1875 C20.97826172 14.74630859 21.51902344 15.30511719 22.07617188 15.88085938 C23.39354281 17.24486291 24.69814083 18.62118364 26 20 C24.02 20.99 24.02 20.99 22 22 C21.67 20.68 21.34 19.36 21 18 C19.68 18 18.36 18 17 18 C16.5875 17.05125 16.175 16.1025 15.75 15.125 C13.89818686 11.81819082 13.39450075 11.26081456 10 10 C7.63777768 9.76020238 7.63777768 9.76020238 5.25 9.875 C4.05117188 9.90207031 4.05117188 9.90207031 2.828125 9.9296875 C1.92320312 9.96449219 1.92320312 9.96449219 1 10 C0.63720544 8.71073008 0.28503302 7.41846728 -0.0625 6.125 C-0.35833984 5.04605469 -0.35833984 5.04605469 -0.66015625 3.9453125 C-1 2 -1 2 0 0 Z " fill="#AF1AF5" transform="translate(313,86)"/>
<path d="M0 0 C0.33 0 0.66 0 1 0 C1 1.65 1 3.3 1 5 C1.99 5.33 2.98 5.66 4 6 C4 6.99 4 7.98 4 9 C4.66 9 5.32 9 6 9 C8.16666667 15.5 8.16666667 15.5 7 19 C7.50000165 21.07703097 7.50000165 21.07703097 8.375 23.25 C9.79364231 27.20794727 10.55598491 30.8262582 11 35 C11.33 35 11.66 35 12 35 C12 36.98 12 38.96 12 41 C9.65623769 38.14344966 8.35071365 35.63146371 7.24609375 32.11328125 C6.94896484 31.17419922 6.65183594 30.23511719 6.34570312 29.26757812 C6.04599609 28.29240234 5.74628906 27.31722656 5.4375 26.3125 C5.13392578 25.35666016 4.83035156 24.40082031 4.51757812 23.41601562 C-0.39555211 7.71326606 -0.39555211 7.71326606 0 0 Z " fill="#6998F0" transform="translate(127,208)"/>
<path d="M0 0 C-1.07146936 3.10726115 -1.85029993 3.92015996 -4.8125 5.5 C-5.864375 5.995 -6.91625 6.49 -8 7 C-8.763125 7.639375 -9.52625 8.27875 -10.3125 8.9375 C-13.30865853 11.23687747 -16.25460587 12.52411353 -19.7109375 13.9921875 C-25.78016114 16.44627318 -25.78016114 16.44627318 -30 21 C-30.99 21 -31.98 21 -33 21 C-33 20.34 -33 19.68 -33 19 C-31.35 18.34 -29.7 17.68 -28 17 C-28 16.34 -28 15.68 -28 15 C-22.65001283 10.34236412 -16.27908834 6.91887045 -10.0625 3.5625 C-9.4120874 3.20849121 -8.7616748 2.85448242 -8.09155273 2.48974609 C-5.19591641 0.96230266 -3.32225835 0 0 0 Z " fill="#965DEA" transform="translate(201,76)"/>
<path d="M0 0 C46.68523957 -1.10615088 46.68523957 -1.10615088 60 10 C58.35 10 56.7 10 55 10 C55 9.34 55 8.68 55 8 C54.14277344 7.93941406 53.28554688 7.87882812 52.40234375 7.81640625 C39.12258442 6.8432559 39.12258442 6.8432559 35 6 C34.505 5.01 34.505 5.01 34 4 C23.12781268 1.05063003 11.18162022 1.39011184 0 1 C0 0.67 0 0.34 0 0 Z " fill="#CC80F0" transform="translate(237,66)"/>
<path d="M0 0 C1.875 0.6875 1.875 0.6875 4 2 C5.125 4.4375 5.125 4.4375 6 7 C6.99 8.485 6.99 8.485 8 10 C8.99 10 9.98 10 11 10 C10.67 10.99 10.34 11.98 10 13 C10.66 13 11.32 13 12 13 C12.680625 14.175625 12.680625 14.175625 13.375 15.375 C15.07651113 18.1235949 16.04519084 18.87921032 19 20 C19 21.32 19 22.64 19 24 C18.01 24 17.02 24 16 24 C15.67 22.68 15.34 21.36 15 20 C14.26136719 19.94328125 13.52273437 19.8865625 12.76171875 19.828125 C9.01907818 18.7058622 8.01157136 16.93163516 5.8125 13.75 C4.80123047 12.31914062 4.80123047 12.31914062 3.76953125 10.859375 C1.48801178 7.17268129 0 4.36572334 0 0 Z " fill="#10A5F3" transform="translate(196,343)"/>
<path d="M0 0 C0 3.93169105 -1.39419615 5.16427228 -4 8 C-4.66 8 -5.32 8 -6 8 C-6.309375 8.86625 -6.309375 8.86625 -6.625 9.75 C-8.79514598 13.30114796 -12.04632609 15.21853043 -15.875 16.75 C-21.4309208 17.40363774 -25.94019347 17.52990326 -31 15 C-28.57018854 14.2523657 -26.69053182 14.00672757 -24.125 14.0625 C-20.06756235 13.98135125 -16.49903905 13.37911593 -13.4375 10.5625 C-12.963125 10.046875 -12.48875 9.53125 -12 9 C-11.13375 8.484375 -10.2675 7.96875 -9.375 7.4375 C-6.88809625 6.22087094 -6.88809625 6.22087094 -6 4 C-4.35178756 2.96986723 -2.68496298 1.96885372 -1 1 C-0.67 0.67 -0.34 0.34 0 0 Z " fill="#83DBF6" transform="translate(271,386)"/>
<path d="M0 0 C0.33 0 0.66 0 1 0 C2.77911415 13.56574543 2.52225005 27.02886069 0.625 40.5625 C0.49899414 41.47298096 0.37298828 42.38346191 0.24316406 43.3215332 C-0.73961416 49.73961416 -0.73961416 49.73961416 -3 52 C-3.93402724 46.58264203 -4.20808081 43.19548425 -2 38 C-1.34 38 -0.68 38 0 38 C-0.08378906 37.10023438 -0.16757812 36.20046875 -0.25390625 35.2734375 C-1.19004387 23.44729395 -0.72141965 11.83062791 0 0 Z " fill="#D7A7F4" transform="translate(371,170)"/>
<path d="M0 0 C0.99 0.33 1.98 0.66 3 1 C3 1.66 3 2.32 3 3 C4.65 2.67 6.3 2.34 8 2 C8 2.66 8 3.32 8 4 C7.34 4 6.68 4 6 4 C6 4.66 6 5.32 6 6 C4.21385682 7.03046722 2.42089982 8.04913236 0.625 9.0625 C-0.37273437 9.63097656 -1.37046875 10.19945312 -2.3984375 10.78515625 C-3.25695312 11.18605469 -4.11546875 11.58695313 -5 12 C-5.66 11.67 -6.32 11.34 -7 11 C-7.625 8.4375 -7.625 8.4375 -8 6 C-2.25 1.125 -2.25 1.125 0 0 Z M-6 6 C-6.33 6.66 -6.66 7.32 -7 8 C-6.34 8 -5.68 8 -5 8 C-5.33 7.34 -5.66 6.68 -6 6 Z " fill="#7E35F8" transform="translate(222,130)"/>
<path d="M0 0 C0.33 0 0.66 0 1 0 C1.53103519 3.45684768 2.04808907 6.91564262 2.5625 10.375 C2.71396484 11.35984375 2.86542969 12.3446875 3.02148438 13.359375 C3.2293457 14.77089844 3.2293457 14.77089844 3.44140625 16.2109375 C3.57232666 17.08024902 3.70324707 17.94956055 3.83813477 18.84521484 C4 21 4 21 3 23 C3.66 23.33 4.32 23.66 5 24 C4.01 26.31 3.02 28.62 2 31 C1.34 31 0.68 31 0 31 C-0.2165625 32.11375 -0.2165625 32.11375 -0.4375 33.25 C-0.7159375 34.61125 -0.7159375 34.61125 -1 36 C-1.12375 36.7425 -1.2475 37.485 -1.375 38.25 C-1.58125 38.8275 -1.7875 39.405 -2 40 C-3.485 40.495 -3.485 40.495 -5 41 C-4.70996094 40.07380859 -4.70996094 40.07380859 -4.4140625 39.12890625 C-4.15367187 38.28199219 -3.89328125 37.43507812 -3.625 36.5625 C-3.36976563 35.73878906 -3.11453125 34.91507813 -2.8515625 34.06640625 C-2.57054687 33.05449219 -2.28953125 32.04257813 -2 31 C-1.82065918 30.35667725 -1.64131836 29.71335449 -1.45654297 29.05053711 C0.12301933 22.80587003 0.23540483 16.85371935 0.125 10.4375 C0.11597656 9.42880859 0.10695313 8.42011719 0.09765625 7.38085938 C0.07433356 4.92031543 0.04160763 2.46029104 0 0 Z " fill="#B790F0" transform="translate(306,175)"/>
<path d="M0 0 C0.33 0.99 0.66 1.98 1 3 C0.01 3.66 -0.98 4.32 -2 5 C-2.95063395 8.64409679 -3.23912545 11.42030426 -2 15 C-2.66 15 -3.32 15 -4 15 C-4 14.34 -4 13.68 -4 13 C-4.66 13 -5.32 13 -6 13 C-6 13.66 -6 14.32 -6 15 C-8.97 15 -11.94 15 -15 15 C-13.164449 11.32889801 -12.18432752 10.02123157 -9.1875 7.5 C-8.47980469 6.90058594 -7.77210938 6.30117187 -7.04296875 5.68359375 C-4.7141111 3.76440131 -2.37814075 1.85792246 0 0 Z " fill="#5A3FE7" transform="translate(298,224)"/>
<path d="M0 0 C0 4.10314628 -2.13900445 5.96967752 -4.6875 8.9375 C-5.12255859 9.46279297 -5.55761719 9.98808594 -6.00585938 10.52929688 C-8.73439686 13.7590768 -11.4650373 16.66094508 -15 19 C-15.99 18.67 -16.98 18.34 -18 18 C-18 17.01 -18 16.02 -18 15 C-15 13 -15 13 -12 13 C-11.7525 12.21625 -11.505 11.4325 -11.25 10.625 C-9.79075497 7.56058543 -8.94985044 7.38274239 -6 6 C-5.67 5.34 -5.34 4.68 -5 4 C-3.75491604 1.50983207 -2.53283204 1.01313282 0 0 Z " fill="#62BFF0" transform="translate(283,371)"/>
<path d="M0 0 C0 0.99 0 1.98 0 3 C0.66 3.33 1.32 3.66 2 4 C1.27554688 3.86722656 0.55109375 3.73445312 -0.1953125 3.59765625 C-2.19094111 3.23312142 -4.18705733 2.8712483 -6.18359375 2.51171875 C-8.18763896 2.14759958 -10.18870578 1.76692044 -12.1875 1.375 C-19.95434627 0.3394205 -26.3443418 1.59727233 -33.92578125 3.44140625 C-37 4 -37 4 -40 3 C-39.34 3 -38.68 3 -38 3 C-38 2.34 -38 1.68 -38 1 C-29.99547142 -0.34496973 -22.0354433 -1.2562516 -13.9375 -1.75 C-13.12885498 -1.80663818 -12.32020996 -1.86327637 -11.48706055 -1.92163086 C-7.13934002 -2.15486108 -3.96790426 -2.0757648 0 0 Z " fill="#CAA2F1" transform="translate(268,131)"/>
<path d="M0 0 C5.66675327 7.55567103 8.52210861 17.70447754 10 27 C9.57421875 29.34765625 9.57421875 29.34765625 9 31 C8.566875 29.39125 8.566875 29.39125 8.125 27.75 C7.25696817 24.85656056 6.36184224 22.63856934 5 20 C4.30899447 18.00827818 3.64097297 16.00838196 3 14 C2.67 13.01 2.34 12.02 2 11 C1.34 10.67 0.68 10.34 0 10 C0 6.7 0 3.4 0 0 Z " fill="#C371EC" transform="translate(361,139)"/>
<path d="M0 0 C4.33503675 1.98833373 7.20554046 4.80202543 10.5625 8.125 C11.4277832 8.94097656 11.4277832 8.94097656 12.31054688 9.7734375 C16.46671389 13.87687345 18.27748294 17.42066866 20 23 C20.33 23.99 20.66 24.98 21 26 C20.01 25.67 19.02 25.34 18 25 C17.34 25 16.68 25 16 25 C15.34 22.36 14.68 19.72 14 17 C12.68 17 11.36 17 10 17 C10 16.01 10 15.02 10 14 C10.66 13.67 11.32 13.34 12 13 C11.13375 12.14535156 10.2675 11.29070312 9.375 10.41015625 C8.24986979 9.29440212 7.12487684 8.17850957 6 7.0625 C5.42765625 6.49853516 4.8553125 5.93457031 4.265625 5.35351562 C2.82474495 3.92121224 1.41012857 2.46258871 0 1 C0 0.67 0 0.34 0 0 Z " fill="#C967F6" transform="translate(326,93)"/>
<path d="M0 0 C1 3 1 3 0.19555664 5.14477539 C-0.22862549 5.95422607 -0.65280762 6.76367676 -1.08984375 7.59765625 C-1.54423828 8.48130859 -1.99863281 9.36496094 -2.46679688 10.27539062 C-2.95212891 11.19513672 -3.43746094 12.11488281 -3.9375 13.0625 C-4.88751434 14.88495054 -5.83429846 16.70908977 -6.77734375 18.53515625 C-7.41530884 19.74764038 -7.41530884 19.74764038 -8.06616211 20.98461914 C-9.14013896 22.93224054 -9.14013896 22.93224054 -9 25 C-9.99 25.33 -10.98 25.66 -12 26 C-11.91291331 24.54054712 -11.80473093 23.08234132 -11.6875 21.625 C-11.62949219 20.81289063 -11.57148438 20.00078125 -11.51171875 19.1640625 C-11 17 -11 17 -8 15 C-7.74969023 12.41619823 -7.74969023 12.41619823 -8 10 C-6.35 9.34 -4.7 8.68 -3 8 C-3 6.02 -3 4.04 -3 2 C-2.01 2 -1.02 2 0 2 C0 1.34 0 0.68 0 0 Z " fill="#9285EE" transform="translate(354,258)"/>
<path d="M0 0 C23.99516389 -0.20638953 23.99516389 -0.20638953 33 1 C33 1.33 33 1.66 33 2 C28.08087107 2.64513166 23.49942818 3.01519691 18.53125 2.96484375 C17.18750111 2.95556738 15.84375105 2.94645834 14.5 2.9375 C13.82324219 2.92912109 13.14648438 2.92074219 12.44921875 2.91210938 C9.34839198 2.8968193 6.96584952 3.01138349 4 4 C2.68 2.68 1.36 1.36 0 0 Z " fill="#9727E1" transform="translate(236,67)"/>
<path d="M0 0 C2 2 2 2 2 6 C0.390625 8.875 0.390625 8.875 -1.75 12 C-2.44609375 13.03125 -3.1421875 14.0625 -3.859375 15.125 C-5.75437948 17.6701155 -7.68945615 19.83516612 -10 22 C-9.34 19.03 -8.68 16.06 -8 13 C-8.99 13.33 -9.98 13.66 -11 14 C-11 13.34 -11 12.68 -11 12 C-9.68 11.67 -8.36 11.34 -7 11 C-7 10.34 -7 9.68 -7 9 C-4 8 -4 8 -2 8 C-0.03177114 6.03177114 -0.33751619 2.65191291 0 0 Z " fill="#6B9FF4" transform="translate(315,321)"/>
<path d="M0 0 C1.65 0.33 3.3 0.66 5 1 C5 1.99 5 2.98 5 4 C3.02 4.99 3.02 4.99 1 6 C1 6.66 1 7.32 1 8 C0.34 8 -0.32 8 -1 8 C-1 8.66 -1 9.32 -1 10 C-1.66 10 -2.32 10 -3 10 C-3.2475 10.5775 -3.495 11.155 -3.75 11.75 C-5.16683317 14.3002997 -6.87627537 16.01785701 -9 18 C-9.33 16.68 -9.66 15.36 -10 14 C-9.195625 13.649375 -8.39125 13.29875 -7.5625 12.9375 C-4.6132233 11.14332716 -4.6132233 11.14332716 -4.1875 7.3125 C-4.125625 6.219375 -4.06375 5.12625 -4 4 C-2.68 3.67 -1.36 3.34 0 3 C0 2.01 0 1.02 0 0 Z " fill="#885AED" transform="translate(209,140)"/>
<path d="M0 0 C0 3 0 3 -1.0625 6.5625 C-2.363632 9.82839838 -2.363632 9.82839838 -1 12 C-1.78375 12.2475 -2.5675 12.495 -3.375 12.75 C-6.32317108 14.15389099 -6.9024777 15.00675737 -8 18 C-8.99 18 -9.98 18 -11 18 C-9.68493198 13.35250831 -7.83857485 10.0362944 -4.9375 6.1875 C-4.22464844 5.23230469 -3.51179687 4.27710937 -2.77734375 3.29296875 C-1 1 -1 1 0 0 Z " fill="#8167EF" transform="translate(152,113)"/>
<path d="M0 0 C2 2 2 2 2 5 C0.35 5 -1.3 5 -3 5 C-3.33 7.31 -3.66 9.62 -4 12 C-5.423125 12.2165625 -5.423125 12.2165625 -6.875 12.4375 C-9.8934494 12.82935399 -9.8934494 12.82935399 -12 14 C-10.125 8.25 -10.125 8.25 -9 6 C-8.01 5.67 -7.02 5.34 -6 5 C-5.505 4.34 -5.01 3.68 -4.5 3 C-3 1 -3 1 0 0 Z " fill="#622FF1" transform="translate(162,107)"/>
<path d="M0 0 C0.66 0.33 1.32 0.66 2 1 C-0.98015902 5.93588837 -3.15540977 8.82992295 -8.73046875 10.578125 C-12.81542217 11.3374623 -16.86593435 11.22872904 -21 11 C-18.70557004 8.70557004 -17.53482605 8.50615472 -14.4375 7.75 C-8.85655262 6.1821356 -4.6128802 3.44294682 0 0 Z " fill="#8882EE" transform="translate(283,235)"/>
<path d="M0 0 C3.7910119 1.44950455 7.3874638 3.15172566 11 5 C11 5.66 11 6.32 11 7 C11.86625 7.12375 12.7325 7.2475 13.625 7.375 C16.89513853 7.98058121 19.87256899 8.88306035 23 10 C20 12 20 12 16.86328125 11.5390625 C15.69152344 11.23742187 14.51976562 10.93578125 13.3125 10.625 C12.13300781 10.32851562 10.95351562 10.03203125 9.73828125 9.7265625 C8.38283203 9.36691406 8.38283203 9.36691406 7 9 C6.67 7.35 6.34 5.7 6 4 C3.03 3.505 3.03 3.505 0 3 C0 2.01 0 1.02 0 0 Z " fill="#8BA2EF" transform="translate(213,235)"/>
<path d="M0 0 C1.32 0.33 2.64 0.66 4 1 C2.5137853 5.19408231 0.41721984 8.62667323 -2.0625 12.3125 C-2.77535156 13.38113281 -3.48820312 14.44976562 -4.22265625 15.55078125 C-4.80917969 16.35902344 -5.39570313 17.16726563 -6 18 C-6.33 18 -6.66 18 -7 18 C-6 10.57142857 -6 10.57142857 -5 7 C-4.01 7 -3.02 7 -2 7 C-2 6.01 -2 5.02 -2 4 C-1.34 4 -0.68 4 0 4 C0 2.68 0 1.36 0 0 Z " fill="#7090ED" transform="translate(325,306)"/>
<path d="M0 0 C0.66 0.33 1.32 0.66 2 1 C1.2045684 3.78077715 0.33587897 6.42896309 -1 9 C-3.4375 10.1875 -3.4375 10.1875 -6 11 C-7.34294481 12.65893182 -8.67744688 14.32476605 -10 16 C-10.99 16 -11.98 16 -13 16 C-11.43636055 12.34584258 -9.17824958 9.7880312 -6.5 6.875 C-5.7059375 6.00617188 -4.911875 5.13734375 -4.09375 4.2421875 C-2.75256247 2.80591578 -1.38954317 1.38954317 0 0 Z " fill="#A37FEE" transform="translate(166,97)"/>
<path d="M0 0 C1.65 1.65 3.3 3.3 5 5 C4.67 5.66 4.34 6.32 4 7 C4.99 7 5.98 7 7 7 C6.6596875 7.53367188 6.319375 8.06734375 5.96875 8.6171875 C4.7098642 11.71364047 5.07877867 13.82813309 5.5 17.125 C5.90625 20.3203125 5.90625 20.3203125 6 23 C5.34 23.66 4.68 24.32 4 25 C3.79503906 23.69804687 3.59007812 22.39609375 3.37890625 21.0546875 C3.10678464 19.32812282 2.83464846 17.60156044 2.5625 15.875 C2.42779297 15.0190625 2.29308594 14.163125 2.15429688 13.28125 C1.45564118 8.85075045 0.74678541 4.42270969 0 0 Z " fill="#8232E9" transform="translate(305,169)"/>
<path d="M0 0 C4.26763313 2.2859534 7.47663624 5.23583857 10.8125 8.6875 C11.31458984 9.19861328 11.81667969 9.70972656 12.33398438 10.23632812 C13.56063509 11.48634362 14.78097491 12.7425468 16 14 C14.02 14.99 14.02 14.99 12 16 C11.67 14.68 11.34 13.36 11 12 C9.68 12 8.36 12 7 12 C5.33333333 8.66666667 3.66666667 5.33333333 2 2 C1.34 2 0.68 2 0 2 C0 1.34 0 0.68 0 0 Z " fill="#AB1CEC" transform="translate(323,92)"/>
<path d="M0 0 C1.32 0 2.64 0 4 0 C4 1.32 4 2.64 4 4 C5.32 4 6.64 4 8 4 C8.33 6.97 8.66 9.94 9 13 C8.01 13 7.02 13 6 13 C4.39453125 10.91796875 4.39453125 10.91796875 2.8125 8.1875 C2.28269531 7.29417969 1.75289062 6.40085937 1.20703125 5.48046875 C0 3 0 3 0 0 Z " fill="#4EA7EF" transform="translate(156,284)"/>
<path d="M0 0 C0.55353075 12.66970387 0.55353075 12.66970387 -3 18 C-3.66 18 -4.32 18 -5 18 C-5.33 18.66 -5.66 19.32 -6 20 C-6.32987303 15.27181994 -5.61137796 12.91706695 -3 9 C-3 8.34 -3 7.68 -3 7 C-2.34 7 -1.68 7 -1 7 C-1.66 6.01 -2.32 5.02 -3 4 C-3 3.01 -3 2.02 -3 1 C-1 0 -1 0 0 0 Z " fill="#8158ED" transform="translate(359,240)"/>
<path d="M0 0 C5.3120724 1.42200092 9.03913019 3.89346446 13.375 7.125 C14.01566406 7.59292969 14.65632813 8.06085938 15.31640625 8.54296875 C16.88265681 9.68843557 18.44204685 10.84327314 20 12 C18 13 18 13 16.0546875 12.44140625 C14.97574219 12.00634766 14.97574219 12.00634766 13.875 11.5625 C13.15054687 11.27503906 12.42609375 10.98757812 11.6796875 10.69140625 C11.12539063 10.46324219 10.57109375 10.23507813 10 10 C10 8.68 10 7.36 10 6 C9.4225 6.2475 8.845 6.495 8.25 6.75 C7.5075 6.8325 6.765 6.915 6 7 C3.4299869 4.88351863 1.85230389 2.77845583 0 0 Z " fill="#D183EB" transform="translate(306,80)"/>
<path d="M0 0 C2.5 1.375 2.5 1.375 5 3 C5 3.66 5 4.32 5 5 C5.66 5 6.32 5 7 5 C11.46015566 12.3697851 11.46015566 12.3697851 10.75 17 C10.5025 17.99 10.255 18.98 10 20 C7.77050304 17.77050304 7.20135411 16.18551121 6.125 13.25 C4.50303303 9.03044684 2.5798232 5.68546171 0 2 C0 1.34 0 0.68 0 0 Z " fill="#C18BF1" transform="translate(296,155)"/>
<path d="M0 0 C2.475 0.495 2.475 0.495 5 1 C5.33 2.65 5.66 4.3 6 6 C7.65 6 9.3 6 11 6 C9.515 8.475 9.515 8.475 8 11 C6.68 10.67 5.36 10.34 4 10 C4 9.34 4 8.68 4 8 C3.34 7.67 2.68 7.34 2 7 C2 5.68 2 4.36 2 3 C1.34 3 0.68 3 0 3 C0 2.01 0 1.02 0 0 Z " fill="#335AF5" transform="translate(214,238)"/>
<path d="M0 0 C-1.39852912 2.79705825 -3.13651858 2.90914993 -6 4 C-6.99 4.66 -7.98 5.32 -9 6 C-11.5 5.625 -11.5 5.625 -14 5 C-14.99 5 -15.98 5 -17 5 C-15.57315804 2.14631608 -13.9881528 2.0393575 -11 1 C-3.63636364 -1.45454545 -3.63636364 -1.45454545 0 0 Z " fill="#8025F0" transform="translate(216,74)"/>
<path d="M0 0 C0.66 0.66 1.32 1.32 2 2 C0.99582031 2.06058594 -0.00835937 2.12117187 -1.04296875 2.18359375 C-9.70203244 2.7120263 -18.35244347 3.30404939 -27 4 C-26.01 3.67 -25.02 3.34 -24 3 C-24 2.34 -24 1.68 -24 1 C-5.784909 -0.62169332 -5.784909 -0.62169332 0 0 Z " fill="#7D28E1" transform="translate(258,128)"/>
<path d="M0 0 C1.32 0.33 2.64 0.66 4 1 C4.33 2.32 4.66 3.64 5 5 C7.97 5.495 7.97 5.495 11 6 C11 9 11 12 11 15 C10.34 13.68 9.68 12.36 9 11 C8.34 11 7.68 11 7 11 C6.34 9.35 5.68 7.7 5 6 C4.34 6 3.68 6 3 6 C0 2.53846154 0 2.53846154 0 0 Z " fill="#70CDF3" transform="translate(207,362)"/>
<path d="M0 0 C1.32 0 2.64 0 4 0 C4.33 0.99 4.66 1.98 5 3 C5.99 3.66 6.98 4.32 8 5 C8 5.99 8 6.98 8 8 C8.33 8.66 8.66 9.32 9 10 C8.67 10.66 8.34 11.32 8 12 C7.01 11.67 6.02 11.34 5 11 C4.67 9.35 4.34 7.7 4 6 C3.01 5.67 2.02 5.34 1 5 C0.67 3.35 0.34 1.7 0 0 Z " fill="#0A92F1" transform="translate(175,312)"/>
<path d="M0 0 C0.75 1.625 0.75 1.625 1 4 C-2.36206741 10.57795797 -8.28854124 15.94388931 -15 19 C-14.125 17.97916667 -13.25 16.95833333 -12.375 15.9375 C-11.55708984 14.98037109 -11.55708984 14.98037109 -10.72265625 14.00390625 C-9.61322516 12.71334355 -8.49655751 11.42894892 -7.37109375 10.15234375 C-4.53783442 6.92143399 -2.07022147 3.79540602 0 0 Z " fill="#DED5FC" transform="translate(300,216)"/>
<path d="M0 0 C0.71484375 1.734375 0.71484375 1.734375 1 4 C-0.43359375 6.140625 -0.43359375 6.140625 -2.4375 8.25 C-3.09621094 8.95640625 -3.75492187 9.6628125 -4.43359375 10.390625 C-4.95050781 10.92171875 -5.46742188 11.4528125 -6 12 C-6.99 11.67 -7.98 11.34 -9 11 C-9 10.01 -9 9.02 -9 8 C-6 6 -6 6 -3 6 C-2.690625 5.195625 -2.38125 4.39125 -2.0625 3.5625 C-1 1 -1 1 0 0 Z " fill="#179FE8" transform="translate(274,378)"/>
<path d="M0 0 C3.465 1.485 3.465 1.485 7 3 C6.67 4.32 6.34 5.64 6 7 C5.34 7 4.68 7 4 7 C4.66 8.65 5.32 10.3 6 12 C5.01 12.495 5.01 12.495 4 13 C3.51891725 11.58398286 3.04021859 10.16715563 2.5625 8.75 C2.29566406 7.96109375 2.02882812 7.1721875 1.75390625 6.359375 C1.08045292 4.25178012 0.50849405 2.15246027 0 0 Z " fill="#1D70EF" transform="translate(137,240)"/>
<path d="M0 0 C1.125 1.75 1.125 1.75 2 4 C1.4375 6.125 1.4375 6.125 0 8 C-2.625 9.25 -2.625 9.25 -5 10 C-4.64766839 4.5388601 -4.64766839 4.5388601 -4 2 C-1.9375 0.5 -1.9375 0.5 0 0 Z " fill="#1691EE" transform="translate(285,363)"/>
<path d="M0 0 C0.99 0 1.98 0 3 0 C6 3.33333333 6 3.33333333 6 6 C5.34 6 4.68 6 4 6 C4 5.34 4 4.68 4 4 C3.34 4 2.68 4 2 4 C2 4.66 2 5.32 2 6 C-0.97 6 -3.94 6 -7 6 C-6.21625 5.38125 -5.4325 4.7625 -4.625 4.125 C-2.03162353 2.10141339 -2.03162353 2.10141339 0 0 Z " fill="#553EF7" transform="translate(290,233)"/>
<path d="M0 0 C0.66 0.33 1.32 0.66 2 1 C1.43624605 4.94627764 0.40389944 7.79480075 -2 11 C-4.1875 11.8125 -4.1875 11.8125 -6 12 C-6 9 -6 9 -4 7 C-4 6.01 -4 5.02 -4 4 C-3.01 4.33 -2.02 4.66 -1 5 C-0.67 3.35 -0.34 1.7 0 0 Z " fill="#5B36E9" transform="translate(198,153)"/>
<path d="M0 0 C0 3.99711412 -1.32141544 5.1042329 -4 8 C-6.87480898 9.94049606 -9.87741598 11.49653362 -13 13 C-10 7 -10 7 -7 6 C-6.67 5.34 -6.34 4.68 -6 4 C-4.35178756 2.96986723 -2.68496298 1.96885372 -1 1 C-0.67 0.67 -0.34 0.34 0 0 Z " fill="#24ADE8" transform="translate(271,386)"/>
<path d="M0 0 C0.33 0 0.66 0 1 0 C0.36678379 5.82558915 -0.81468106 11.54193068 -3 17 C-3.66 17.33 -4.32 17.66 -5 18 C-4.19444444 4.19444444 -4.19444444 4.19444444 0 0 Z " fill="#B087EB" transform="translate(367,223)"/>
<path d="M0 0 C1.32 0 2.64 0 4 0 C4 0.66 4 1.32 4 2 C3.34 2 2.68 2 2 2 C1.773125 2.70125 1.54625 3.4025 1.3125 4.125 C-0.31656867 7.69343613 -2.40640731 10.06514511 -5 13 C-5 10.66666667 -5 8.33333333 -5 6 C-4.01 5.67 -3.02 5.34 -2 5 C-2 4.34 -2 3.68 -2 3 C-1.34 3 -0.68 3 0 3 C0 2.01 0 1.02 0 0 Z " fill="#78C1F3" transform="translate(291,357)"/>
<path d="M0 0 C0.99 0 1.98 0 3 0 C1.68139111 4.61513112 -0.21355437 8.09897612 -3 12 C-3.33 11.34 -3.66 10.68 -4 10 C-3.0625 7.875 -3.0625 7.875 -2 6 C-2.66 6 -3.32 6 -4 6 C-4.33 5.01 -4.66 4.02 -5 3 C-4.01 2.34 -3.02 1.68 -2 1 C-1.67 1.33 -1.34 1.66 -1 2 C-0.67 1.34 -0.34 0.68 0 0 Z " fill="#8795F6" transform="translate(333,295)"/>
<path d="M0 0 C1.5625 1.125 1.5625 1.125 3 3 C2.6875 6.1875 2.6875 6.1875 2 9 C1.01 9.33 0.02 9.66 -1 10 C-1.33 7.03 -1.66 4.06 -2 1 C-1.34 0.67 -0.68 0.34 0 0 Z " fill="#7729F4" transform="translate(362,222)"/>
<path d="M0 0 C3.12436746 2.08291164 3.5365026 2.61276477 4.75 5.9375 C5.14445312 6.97197266 5.14445312 6.97197266 5.546875 8.02734375 C6 10 6 10 5 13 C4.01 12.34 3.02 11.68 2 11 C1.8125 8.375 1.8125 8.375 2 6 C0.68 5.34 -0.64 4.68 -2 4 C-1.34 2.68 -0.68 1.36 0 0 Z " fill="#A217ED" transform="translate(356,133)"/>
<path d="M0 0 C1.875 0.6875 1.875 0.6875 4 2 C5.0625 4.375 5.0625 4.375 6 7 C6.556875 7.70125 7.11375 8.4025 7.6875 9.125 C8.120625 9.74375 8.55375 10.3625 9 11 C8.67 11.99 8.34 12.98 8 14 C4 9.25 4 9.25 4 7 C3.34 7 2.68 7 2 7 C0.5393715 4.35261084 0 3.10551666 0 0 Z " fill="#149FEF" transform="translate(196,343)"/>
<path d="M0 0 C-4.4378561 1.11165232 -8.76956386 1.11527763 -13.3125 1.0625 C-14.05306641 1.05798828 -14.79363281 1.05347656 -15.55664062 1.04882812 C-17.37112899 1.03712175 -19.18557534 1.01918898 -21 1 C-21 0.67 -21 0.34 -21 0 C-5.88 -3.92 -5.88 -3.92 0 0 Z " fill="#B46FE8" transform="translate(240,69)"/>
<path d="M0 0 C0.66 0 1.32 0 2 0 C2.21192221 5.19209404 1.5912689 9.126739 0 14 C-0.33 14 -0.66 14 -1 14 C-1.93402724 8.58264203 -2.20808081 5.19548425 0 0 Z " fill="#B17DEA" transform="translate(369,208)"/>
<path d="M0 0 C1.32 0.33 2.64 0.66 4 1 C4 1.66 4 2.32 4 3 C5.98 2.67 7.96 2.34 10 2 C10.66 3.32 11.32 4.64 12 6 C10.68 6.33 9.36 6.66 8 7 C7.67 6.34 7.34 5.68 7 5 C6.195625 4.690625 5.39125 4.38125 4.5625 4.0625 C2 3 2 3 0 0 Z " fill="#8828E9" transform="translate(285,142)"/>
<path d="M0 0 C0.33 0.66 0.66 1.32 1 2 C0.34 2 -0.32 2 -1 2 C-1 2.66 -1 3.32 -1 4 C-1.66 4 -2.32 4 -3 4 C-3.2475 4.5775 -3.495 5.155 -3.75 5.75 C-5.16683317 8.3002997 -6.87627537 10.01785701 -9 12 C-9.33 10.68 -9.66 9.36 -10 8 C-9.175 7.5875 -8.35 7.175 -7.5 6.75 C-6.675 6.1725 -5.85 5.595 -5 5 C-5 3.68 -5 2.36 -5 1 C-3.35 0.67 -1.7 0.34 0 0 Z " fill="#B498F3" transform="translate(209,146)"/>
<path d="M0 0 C6.18160604 0.53753096 11.326858 2.54582388 17 5 C17 5.33 17 5.66 17 6 C15.35 6 13.7 6 12 6 C12 5.34 12 4.68 12 4 C11.38511719 3.93941406 10.77023437 3.87882812 10.13671875 3.81640625 C9.32847656 3.73261719 8.52023437 3.64882812 7.6875 3.5625 C6.88699219 3.48128906 6.08648437 3.40007812 5.26171875 3.31640625 C3 3 3 3 0 2 C0 1.34 0 0.68 0 0 Z " fill="#D493F0" transform="translate(280,70)"/>
<path d="M0 0 C0 3.61029169 -0.96092582 6.55806676 -2 10 C-3.65 10.33 -5.3 10.66 -7 11 C-5.5140084 6.40693504 -3.14985318 3.56430755 0 0 Z " fill="#A68FEE" transform="translate(152,113)"/>
<path d="M0 0 C6.75 -0.125 6.75 -0.125 9 1 C9 1.66 9 2.32 9 3 C8.01 3 7.02 3 6 3 C5.67 3.99 5.34 4.98 5 6 C4.67 5.34 4.34 4.68 4 4 C1.97536745 3.34786708 1.97536745 3.34786708 0 3 C0 2.01 0 1.02 0 0 Z " fill="#A920F0" transform="translate(283,73)"/>
<path d="M0 0 C1.875 0.6875 1.875 0.6875 4 2 C4.72159424 3.64363134 5.39351421 5.31050386 6 7 C6.66 7.33 7.32 7.66 8 8 C8.73075648 10.3140622 9.40138258 12.64828869 10 15 C5.84710903 11.32628876 2.76621742 6.77633541 0 2 C0 1.34 0 0.68 0 0 Z " fill="#89CBF0" transform="translate(171,310)"/>
<path d="M0 0 C0.33 0 0.66 0 1 0 C1.33 3.3 1.66 6.6 2 10 C1.01 9.67 0.02 9.34 -1 9 C-1.66 9.66 -2.32 10.32 -3 11 C-2.25 3.375 -2.25 3.375 0 0 Z " fill="#4E48E5" transform="translate(134,148)"/>
<path d="M0 0 C2.97 0.495 2.97 0.495 6 1 C6 2.98 6 4.96 6 7 C6.66 7.33 7.32 7.66 8 8 C6.68 7.67 5.36 7.34 4 7 C4 6.34 4 5.68 4 5 C3.34 5 2.68 5 2 5 C1.34 3.35 0.68 1.7 0 0 Z " fill="#12ADEF" transform="translate(225,382)"/>
<path d="M0 0 C0.33 0.66 0.66 1.32 1 2 C0.07421875 4.0234375 0.07421875 4.0234375 -1.3125 6.375 C-2.97747095 9.22787285 -4.5191968 12.0383936 -6 15 C-6 12.03 -6 9.06 -6 6 C-5.01 5.67 -4.02 5.34 -3 5 C-1.30117552 2.50240018 -1.30117552 2.50240018 0 0 Z " fill="#B7A7F3" transform="translate(199,158)"/>
<path d="M0 0 C5.67276511 -0.29341888 8.99067246 -0.00559652 14 3 C14 3.33 14 3.66 14 4 C11.03 4 8.06 4 5 4 C4.67 3.34 4.34 2.68 4 2 C1.98330173 0.86649466 1.98330173 0.86649466 0 0 Z " fill="#BA54E7" transform="translate(292,76)"/>
<path d="M0 0 C2.475 0.495 2.475 0.495 5 1 C5 1.66 5 2.32 5 3 C5.66 3 6.32 3 7 3 C7.33 4.98 7.66 6.96 8 9 C5.06799526 6.14723863 2.35684596 3.34920216 0 0 Z " fill="#B778EC" transform="translate(288,146)"/>
<path d="M0 0 C1.63116406 3.26232811 1.01138485 6.61085606 0 10 C-2.5625 12.5 -2.5625 12.5 -5 14 C-4.28269264 10.76834156 -3.18684926 7.81292078 -1.9375 4.75 C-1.57527344 3.85796875 -1.21304688 2.9659375 -0.83984375 2.046875 C-0.56269531 1.37140625 -0.28554687 0.6959375 0 0 Z " fill="#A79FF1" transform="translate(137,137)"/>
<path d="M0 0 C0 3 0 3 -2.5 5.6875 C-3.325 6.450625 -4.15 7.21375 -5 8 C-5 7.34 -5 6.68 -5 6 C-5.66 6 -6.32 6 -7 6 C-7 5.01 -7 4.02 -7 3 C-5.68 3 -4.36 3 -3 3 C-2.67 2.34 -2.34 1.68 -2 1 C-1.34 0.67 -0.68 0.34 0 0 Z " fill="#65A9F6" transform="translate(304,343)"/>
<path d="M0 0 C0.33 0.66 0.66 1.32 1 2 C0.34 2.391875 -0.32 2.78375 -1 3.1875 C-3.29166667 4.85416667 -3.29166667 4.85416667 -3.25 7.6875 C-3.1675 8.450625 -3.085 9.21375 -3 10 C-4.5 8.8125 -4.5 8.8125 -6 7 C-6.1875 4.3125 -6.1875 4.3125 -6 2 C-4.02 1.34 -2.04 0.68 0 0 Z " fill="#5A3EF0" transform="translate(350,264)"/>
<path d="M0 0 C0.4125 0.66 0.825 1.32 1.25 2 C1.8275 2.66 2.405 3.32 3 4 C4.32 4 5.64 4 7 4 C7 5.32 7 6.64 7 8 C5.68 8.33 4.36 8.66 3 9 C0 3.375 0 3.375 0 0 Z " fill="#6AA9F9" transform="translate(143,258)"/>
<path d="M0 0 C1 3 1 3 0.00390625 5.48046875 C-0.47175781 6.37378906 -0.94742187 7.26710938 -1.4375 8.1875 C-1.91058594 9.08855469 -2.38367188 9.98960937 -2.87109375 10.91796875 C-3.24363281 11.60503906 -3.61617188 12.29210937 -4 13 C-4.33 13 -4.66 13 -5 13 C-5 11.35 -5 9.7 -5 8 C-4.34 8 -3.68 8 -3 8 C-3 6.02 -3 4.04 -3 2 C-2.01 2 -1.02 2 0 2 C0 1.34 0 0.68 0 0 Z " fill="#AF9CF1" transform="translate(354,258)"/>
<path d="M0 0 C1.65 0 3.3 0 5 0 C5 1.32 5 2.64 5 4 C0.25 5.125 0.25 5.125 -2 4 C-1.34 2.68 -0.68 1.36 0 0 Z " fill="#8B2AED" transform="translate(270,130)"/>
<path d="M0 0 C-1.75 3.875 -1.75 3.875 -4 5 C-6.3329866 5.04022391 -8.66706666 5.04320247 -11 5 C-4.63636364 0 -4.63636364 0 0 0 Z " fill="#AC76EB" transform="translate(201,76)"/>
<path d="M0 0 C0.66 0 1.32 0 2 0 C2.37211538 7.56634615 2.37211538 7.56634615 0.48828125 9.76171875 C-0.00285156 10.17035156 -0.49398438 10.57898438 -1 11 C-1.02688151 9.35425434 -1.04634123 7.70838587 -1.0625 6.0625 C-1.07410156 5.14597656 -1.08570313 4.22945313 -1.09765625 3.28515625 C-1 1 -1 1 0 0 Z " fill="#2567F2" transform="translate(313,320)"/>
<path d="M0 0 C2.6875 0.0625 2.6875 0.0625 6 1 C7.99364654 3.14304124 9.51532107 5.48392907 11 8 C6.99698968 6.23867546 3.3971023 3.73867517 0 1 C0 0.67 0 0.34 0 0 Z " fill="#CA98F1" transform="translate(277,138)"/>
<path d="M0 0 C0.66 0.33 1.32 0.66 2 1 C-1.625 5.875 -1.625 5.875 -5 7 C-5.33 7.66 -5.66 8.32 -6 9 C-6.99 9 -7.98 9 -9 9 C-9 8.34 -9 7.68 -9 7 C-7.35 6.34 -5.7 5.68 -4 5 C-4 4.34 -4 3.68 -4 3 C-2 1.375 -2 1.375 0 0 Z " fill="#B892ED" transform="translate(177,88)"/>
<path d="M0 0 C0.66 0 1.32 0 2 0 C3.34331654 1.99330842 4.67594012 3.99384866 6 6 C6.99 6.66 7.98 7.32 9 8 C8.67 9.32 8.34 10.64 8 12 C6.66382103 10.18959679 5.33112616 8.3766216 4 6.5625 C3.2575 5.55316406 2.515 4.54382813 1.75 3.50390625 C0 1 0 1 0 0 Z " fill="#91D9F6" transform="translate(198,350)"/>
<path d="M0 0 C0.66 0 1.32 0 2 0 C2 0.66 2 1.32 2 2 C2.99 2 3.98 2 5 2 C5.99 4.97 6.98 7.94 8 11 C4.32966073 7.72291137 2.30718811 4.28477792 0 0 Z " fill="#81CDF2" transform="translate(190,339)"/>
<path d="M0 0 C6.70459519 4.93654267 6.70459519 4.93654267 7.9375 9.375 C7.958125 10.24125 7.97875 11.1075 8 12 C5.86088258 9.94870558 4.04262537 7.84304969 2.3125 5.4375 C1.65701172 4.53837891 1.65701172 4.53837891 0.98828125 3.62109375 C0 2 0 2 0 0 Z " fill="#9BD9F5" transform="translate(182,327)"/>
<path d="M0 0 C4.875 4.625 4.875 4.625 6 8 C3.13275314 7.42655063 2.1385485 7.1385485 0 5 C-0.125 2.375 -0.125 2.375 0 0 Z " fill="#8EA0EE" transform="translate(198,218)"/>
<path d="M0 0 C2.625 0.9375 2.625 0.9375 5 2 C5 2.99 5 3.98 5 5 C5.66 5.33 6.32 5.66 7 6 C3.65626525 5.44271087 0.96687001 4.64826111 -2 3 C-2 2.34 -2 1.68 -2 1 C-1.34 0.67 -0.68 0.34 0 0 Z " fill="#A360EA" transform="translate(263,129)"/>
<path d="M0 0 C1.32 0 2.64 0 4 0 C3.39816251 2.02045442 2.72693904 4.02111039 2 6 C1.01 6.495 1.01 6.495 0 7 C-0.66 5.35 -1.32 3.7 -2 2 C-1.34 1.34 -0.68 0.68 0 0 Z " fill="#3F56E4" transform="translate(327,301)"/>
<path d="M0 0 C0.75 1.625 0.75 1.625 1 4 C-0.9375 7.25 -0.9375 7.25 -3 10 C-3.75 8.375 -3.75 8.375 -4 6 C-2.0625 2.75 -2.0625 2.75 0 0 Z " fill="#A68FEB" transform="translate(300,216)"/>
<path d="M0 0 C4.31687378 0.35001679 6.19275066 1.77686187 9 5 C5.20696275 3.99806563 2.28463659 3.18975773 -1 1 C-0.67 0.67 -0.34 0.34 0 0 Z " fill="#C86DEE" transform="translate(317,88)"/>
<path d="M0 0 C1.485 0.99 1.485 0.99 3 2 C3 3.32 3 4.64 3 6 C2.01 6 1.02 6 0 6 C-0.38218767 4.34385343 -0.71395102 2.67542976 -1 1 C-0.67 0.67 -0.34 0.34 0 0 Z " fill="#06A7FB" transform="translate(212,361)"/>
<path d="M0 0 C0.66 0.33 1.32 0.66 2 1 C1.34 3.64 0.68 6.28 0 9 C-0.99 9 -1.98 9 -3 9 C-2.01 6.03 -1.02 3.06 0 0 Z " fill="#663BF0" transform="translate(302,215)"/>
<path d="M0 0 C-1.28650706 0.69710731 -2.57940665 1.38242876 -3.875 2.0625 C-4.95394531 2.63677734 -4.95394531 2.63677734 -6.0546875 3.22265625 C-6.69664062 3.47917969 -7.33859375 3.73570312 -8 4 C-8.66 3.67 -9.32 3.34 -10 3 C-9.67 2.01 -9.34 1.02 -9 0 C-3.375 -1.125 -3.375 -1.125 0 0 Z " fill="#C0A1F0" transform="translate(228,136)"/>
<path d="M0 0 C3.53600465 1.91135386 5.78972846 3.62642766 8 7 C7.01 7.33 6.02 7.66 5 8 C2 4.25 2 4.25 2 2 C1.34 2 0.68 2 0 2 C0 1.34 0 0.68 0 0 Z " fill="#A124E0" transform="translate(323,92)"/>
<path d="M0 0 C1.485 0.99 1.485 0.99 3 2 C3 3.32 3 4.64 3 6 C1.68 6 0.36 6 -1 6 C-1.042721 4.33388095 -1.04063832 2.66617115 -1 1 C-0.67 0.67 -0.34 0.34 0 0 Z " fill="#3357F9" transform="translate(322,304)"/>
<path d="M0 0 C0.99 0 1.98 0 3 0 C3.66 2.64 4.32 5.28 5 8 C4.34 8 3.68 8 3 8 C0.95830515 5.09451118 0 3.59857954 0 0 Z " fill="#578AE7" transform="translate(132,230)"/>
<path d="M0 0 C3.3 0.33 6.6 0.66 10 1 C10 1.33 10 1.66 10 2 C3.565 2.495 3.565 2.495 -3 3 C-2.01 2.67 -1.02 2.34 0 2 C0 1.34 0 0.68 0 0 Z " fill="#7936DA" transform="translate(234,129)"/>
<path d="M0 0 C0 4.38968456 -2.12805101 5.76905739 -5 9 C-5 6.29745539 -4.96569331 4.49470772 -4 2 C-1.9375 0.75 -1.9375 0.75 0 0 Z " fill="#97D4F7" transform="translate(283,371)"/>
<path d="M0 0 C0.66 0.33 1.32 0.66 2 1 C2 1.66 2 2.32 2 3 C0.68 3 -0.64 3 -2 3 C-1.67 4.65 -1.34 6.3 -1 8 C-1.99 7.67 -2.98 7.34 -4 7 C-3.39816251 4.97954558 -2.72693904 2.97888961 -2 1 C-1.34 0.67 -0.68 0.34 0 0 Z " fill="#0987F9" transform="translate(292,352)"/>
<path d="M0 0 C0.66 0.33 1.32 0.66 2 1 C2.4140625 3.06640625 2.4140625 3.06640625 2.625 5.5625 C2.69976562 6.38878906 2.77453125 7.21507812 2.8515625 8.06640625 C2.92503906 9.02353516 2.92503906 9.02353516 3 10 C0.59392032 7.72327944 -0.58050415 6.35596682 -1 3 C-0.67 2.01 -0.34 1.02 0 0 Z " fill="#63AEF1" transform="translate(150,268)"/>
<path d="M0 0 C1.32 0.33 2.64 0.66 4 1 C4 3.31 4 5.62 4 8 C1.84622436 5.37801226 0.59927826 3.35595828 0 0 Z " fill="#2075E2" transform="translate(143,256)"/>
<path d="M0 0 C-0.33 0.99 -0.66 1.98 -1 3 C-4.3 3.33 -7.6 3.66 -11 4 C-7.88789178 0.88789178 -4.34860953 0 0 0 Z " fill="#BFBCF3" transform="translate(273,242)"/>
<path d="M0 0 C2 2 2 2 2 6 C0 7.75 0 7.75 -2 9 C-2.33 8.01 -2.66 7.02 -3 6 C-2.34 5.34 -1.68 4.68 -1 4 C-0.3574765 1.93125966 -0.3574765 1.93125966 0 0 Z " fill="#6E37E7" transform="translate(306,206)"/>
<path d="M0 0 C0 0.66 0 1.32 0 2 C-3.50776784 3.60355101 -6.14354879 4.22036864 -10 4 C-8.68 3.67 -7.36 3.34 -6 3 C-6 2.34 -6 1.68 -6 1 C-3 0 -3 0 0 0 Z " fill="#7535E2" transform="translate(230,132)"/>
<path d="M0 0 C2.5 2.3125 2.5 2.3125 5 5 C5 5.99 5 6.98 5 8 C2.21611025 6.29374499 1.14615794 5.52373261 0.25 2.3125 C0.1675 1.549375 0.085 0.78625 0 0 Z " fill="#D792F1" transform="translate(343,110)"/>
<path d="M0 0 C0 3.90838866 -1.50567876 5.11594107 -4 8 C-4.66 7.67 -5.32 7.34 -6 7 C-6 6.01 -6 5.02 -6 4 C-3.5625 2.375 -3.5625 2.375 -1 1 C-0.67 0.67 -0.34 0.34 0 0 Z " fill="#9FE3F8" transform="translate(271,386)"/>
<path d="M0 0 C0 1.65 0 3.3 0 5 C-1.32 5 -2.64 5 -4 5 C-4 4.01 -4 3.02 -4 2 C-1 0 -1 0 0 0 Z " fill="#0AA5EF" transform="translate(269,384)"/>
<path d="M0 0 C0.99 0.33 1.98 0.66 3 1 C3.6875 3.0625 3.6875 3.0625 4 5 C3.01 5.495 3.01 5.495 2 6 C0 5 0 5 -0.6875 3 C-0.790625 2.34 -0.89375 1.68 -1 1 C-0.67 0.67 -0.34 0.34 0 0 Z " fill="#0598F7" transform="translate(193,336)"/>
<path d="M0 0 C1.32 0.33 2.64 0.66 4 1 C2.25 5.875 2.25 5.875 0 7 C0 4.69 0 2.38 0 0 Z " fill="#849DF2" transform="translate(325,306)"/>
<path d="M0 0 C2.3422013 1.51109761 3.77132446 2.46097908 4.875 5.0625 C4.936875 6.0215625 4.936875 6.0215625 5 7 C4.34 7.66 3.68 8.32 3 9 C0 3.375 0 3.375 0 0 Z " fill="#99C5F5" transform="translate(139,249)"/>
<path d="" fill="#FFFFFF" transform="translate(0,0)"/>
<path d="" fill="#FFFFFF" transform="translate(0,0)"/>
<path d="" fill="#FFFFFF" transform="translate(0,0)"/>
<path d="" fill="#FFFFFF" transform="translate(0,0)"/>
<path d="" fill="#FFFFFF" transform="translate(0,0)"/>
<path d="" fill="#FFFFFF" transform="translate(0,0)"/>
<path d="" fill="#FFFFFF" transform="translate(0,0)"/>
<path d="" fill="#FFFFFF" transform="translate(0,0)"/>
<path d="" fill="#FFFFFF" transform="translate(0,0)"/>
<path d="" fill="#FFFFFF" transform="translate(0,0)"/>
<path d="" fill="#FFFFFF" transform="translate(0,0)"/>
<path d="" fill="#FFFFFF" transform="translate(0,0)"/>
<path d="" fill="#FFFFFF" transform="translate(0,0)"/>
<path d="" fill="#FFFFFF" transform="translate(0,0)"/>
<path d="" fill="#FFFFFF" transform="translate(0,0)"/>
<path d="" fill="#FFFFFF" transform="translate(0,0)"/>
<path d="" fill="#FFFFFF" transform="translate(0,0)"/>
<path d="" fill="#FFFFFF" transform="translate(0,0)"/>
<path d="" fill="#FFFFFF" transform="translate(0,0)"/>
<path d="" fill="#FFFFFF" transform="translate(0,0)"/>
<path d="" fill="#FFFFFF" transform="translate(0,0)"/>
<path d="" fill="#FFFFFF" transform="translate(0,0)"/>
<path d="" fill="#FFFFFF" transform="translate(0,0)"/>
<path d="" fill="#FFFFFF" transform="translate(0,0)"/>
<path d="" fill="#FFFFFF" transform="translate(0,0)"/>
<path d="" fill="#FFFFFF" transform="translate(0,0)"/>
<path d="" fill="#FFFFFF" transform="translate(0,0)"/>
<path d="" fill="#FFFFFF" transform="translate(0,0)"/>
<path d="" fill="#FFFFFF" transform="translate(0,0)"/>
<path d="" fill="#FFFFFF" transform="translate(0,0)"/>
<path d="" fill="#FFFFFF" transform="translate(0,0)"/>
<path d="" fill="#FFFFFF" transform="translate(0,0)"/>
<path d="" fill="#FFFFFF" transform="translate(0,0)"/>
<path d="" fill="#FFFFFF" transform="translate(0,0)"/>
<path d="" fill="#FFFFFF" transform="translate(0,0)"/>
<path d="" fill="#FFFFFF" transform="translate(0,0)"/>
<path d="" fill="#FFFFFF" transform="translate(0,0)"/>
<path d="" fill="#FFFFFF" transform="translate(0,0)"/>
<path d="" fill="#FFFFFF" transform="translate(0,0)"/>
<path d="" fill="#FFFFFF" transform="translate(0,0)"/>
<path d="" fill="#FFFFFF" transform="translate(0,0)"/>
<path d="" fill="#FFFFFF" transform="translate(0,0)"/>
<path d="" fill="#FFFFFF" transform="translate(0,0)"/>
<path d="" fill="#FFFFFF" transform="translate(0,0)"/>
<path d="" fill="#FFFFFF" transform="translate(0,0)"/>
<path d="" fill="#FFFFFF" transform="translate(0,0)"/>
<path d="" fill="#FFFFFF" transform="translate(0,0)"/>
<path d="" fill="#FFFFFF" transform="translate(0,0)"/>
<path d="" fill="#FFFFFF" transform="translate(0,0)"/>
</svg>
